<svg xmlns="http://www.w3.org/2000/svg" width="71.52" height="71.52" viewBox="0 0 71.52 71.52"><defs><style>.a{fill:#7d7d7d;}</style></defs><path class="a" d="M71.52,35.76A35.76,35.76,0,1,0,35.76,71.52,35.761,35.761,0,0,0,71.52,35.76Zm-68.269,0A32.509,32.509,0,1,1,35.76,68.269,32.508,32.508,0,0,1,3.251,35.76Z"/><path class="a" d="M234.8,171.081v-20.64h6.811l1.076-6.84H234.8v-3.43c0-1.785.585-3.488,3.147-3.488h5.12v-6.827H235.8c-6.112,0-7.779,4.025-7.779,9.6V143.6h-4.194v6.843h4.194v20.64Z" transform="translate(-197.668 -114.681)"/></svg>