<svg xmlns="http://www.w3.org/2000/svg" width="37.8" height="27" viewBox="0 0 37.8 27"><defs><style>.a{fill:#fff;}</style></defs><g transform="translate(0 -2)"><g transform="translate(0 2)"><path class="a" d="M18.363,11.577,13.686,7.484.316,18.945a2.737,2.737,0,0,0,1.866.732H34.544a2.717,2.717,0,0,0,1.858-.732L23.039,7.484Z" transform="translate(0.537 7.323)"/><path class="a" d="M36.406,2.732A2.719,2.719,0,0,0,34.541,2H2.178a2.708,2.708,0,0,0-1.86.737L18.359,18.2Z" transform="translate(0.541 -2)"/><path class="a" d="M0,2.878V25.31L13.049,14.221Z" transform="translate(0 -0.507)"/><path class="a" d="M9.167,14.226,22.216,25.315V2.875Z" transform="translate(15.584 -0.512)"/></g></g></svg>