<svg xmlns="http://www.w3.org/2000/svg" width="40.091" height="40" viewBox="0 0 40.091 40"><defs><style>.a{fill:#fff;}</style></defs><g transform="translate(0 -0.394)"><g transform="translate(0 0.394)"><g transform="translate(0 0)"><path class="a" d="M39.192,32.032,33,25.84a3.228,3.228,0,0,0-4.552.086l-3.119,3.119c-.2-.109-.4-.222-.616-.342a31.041,31.041,0,0,1-7.5-5.426,31.214,31.214,0,0,1-5.437-7.516c-.116-.209-.226-.41-.336-.6l2.093-2.09,1.029-1.03a3.225,3.225,0,0,0,.083-4.552L8.453,1.292A3.225,3.225,0,0,0,3.9,1.378L2.156,3.133,2.2,3.18A10.09,10.09,0,0,0,.766,5.716a10.515,10.515,0,0,0-.64,2.572c-.818,6.778,2.28,12.972,10.685,21.377,11.619,11.618,20.982,10.74,21.385,10.7a10.461,10.461,0,0,0,2.58-.648A10.056,10.056,0,0,0,37.3,38.283l.038.034,1.768-1.731A3.231,3.231,0,0,0,39.192,32.032Z" transform="translate(0 -0.394)"/></g></g></g></svg>